<mxfile host="app.diagrams.net" agent="Mozilla/5.0 (Windows NT 10.0; Win64; x64) AppleWebKit/537.36 (KHTML, like Gecko) Chrome/132.0.0.0 Safari/537.36" version="26.0.14">
  <diagram name="Page-1" id="aNcG0NSS0AbO6u5e9chr">
    <mxGraphModel dx="1009" dy="525" grid="1" gridSize="10" guides="1" tooltips="1" connect="1" arrows="1" fold="1" page="1" pageScale="1" pageWidth="827" pageHeight="1169" math="0" shadow="0">
      <root>
        <mxCell id="0" />
        <mxCell id="1" parent="0" />
        <mxCell id="hEO-Ax7airPjoEFjA2KO-3" value="Client" style="swimlane;fontStyle=1;align=center;verticalAlign=top;childLayout=stackLayout;horizontal=1;startSize=26;horizontalStack=0;resizeParent=1;resizeParentMax=0;resizeLast=0;collapsible=1;marginBottom=0;whiteSpace=wrap;html=1;" vertex="1" parent="1">
          <mxGeometry x="254" y="20" width="320" height="86" as="geometry" />
        </mxCell>
        <mxCell id="hEO-Ax7airPjoEFjA2KO-4" value="-window: Window" style="text;strokeColor=none;fillColor=none;align=left;verticalAlign=top;spacingLeft=4;spacingRight=4;overflow=hidden;rotatable=0;points=[[0,0.5],[1,0.5]];portConstraint=eastwest;whiteSpace=wrap;html=1;" vertex="1" parent="hEO-Ax7airPjoEFjA2KO-3">
          <mxGeometry y="26" width="320" height="26" as="geometry" />
        </mxCell>
        <mxCell id="hEO-Ax7airPjoEFjA2KO-5" value="" style="line;strokeWidth=1;fillColor=none;align=left;verticalAlign=middle;spacingTop=-1;spacingLeft=3;spacingRight=3;rotatable=0;labelPosition=right;points=[];portConstraint=eastwest;strokeColor=inherit;" vertex="1" parent="hEO-Ax7airPjoEFjA2KO-3">
          <mxGeometry y="52" width="320" height="8" as="geometry" />
        </mxCell>
        <mxCell id="hEO-Ax7airPjoEFjA2KO-6" value="+buildWindow(factory: AbstractWidgetFactory, title: String)" style="text;strokeColor=none;fillColor=none;align=left;verticalAlign=top;spacingLeft=4;spacingRight=4;overflow=hidden;rotatable=0;points=[[0,0.5],[1,0.5]];portConstraint=eastwest;whiteSpace=wrap;html=1;" vertex="1" parent="hEO-Ax7airPjoEFjA2KO-3">
          <mxGeometry y="60" width="320" height="26" as="geometry" />
        </mxCell>
        <mxCell id="hEO-Ax7airPjoEFjA2KO-10" value="&lt;b&gt;&amp;lt;abstract&amp;gt;&lt;/b&gt;&lt;div&gt;&lt;b&gt;AbstractWidgetFactory&lt;/b&gt;&lt;/div&gt;" style="swimlane;fontStyle=0;childLayout=stackLayout;horizontal=1;startSize=26;fillColor=none;horizontalStack=0;resizeParent=1;resizeParentMax=0;resizeLast=0;collapsible=1;marginBottom=0;whiteSpace=wrap;html=1;" vertex="1" parent="1">
          <mxGeometry x="430" y="180" width="220" height="52" as="geometry" />
        </mxCell>
        <mxCell id="hEO-Ax7airPjoEFjA2KO-11" value="+createWindow(title: String) :: Window" style="text;strokeColor=none;fillColor=none;align=left;verticalAlign=top;spacingLeft=4;spacingRight=4;overflow=hidden;rotatable=0;points=[[0,0.5],[1,0.5]];portConstraint=eastwest;whiteSpace=wrap;html=1;" vertex="1" parent="hEO-Ax7airPjoEFjA2KO-10">
          <mxGeometry y="26" width="220" height="26" as="geometry" />
        </mxCell>
        <mxCell id="hEO-Ax7airPjoEFjA2KO-18" value="&amp;lt;Abstract&amp;gt;&lt;div&gt;Window&lt;/div&gt;" style="swimlane;fontStyle=1;align=center;verticalAlign=top;childLayout=stackLayout;horizontal=1;startSize=40;horizontalStack=0;resizeParent=1;resizeParentMax=0;resizeLast=0;collapsible=1;marginBottom=0;whiteSpace=wrap;html=1;" vertex="1" parent="1">
          <mxGeometry x="270" y="273" width="120" height="100" as="geometry" />
        </mxCell>
        <mxCell id="hEO-Ax7airPjoEFjA2KO-19" value="#title: String" style="text;strokeColor=none;fillColor=none;align=left;verticalAlign=top;spacingLeft=4;spacingRight=4;overflow=hidden;rotatable=0;points=[[0,0.5],[1,0.5]];portConstraint=eastwest;whiteSpace=wrap;html=1;" vertex="1" parent="hEO-Ax7airPjoEFjA2KO-18">
          <mxGeometry y="40" width="120" height="26" as="geometry" />
        </mxCell>
        <mxCell id="hEO-Ax7airPjoEFjA2KO-20" value="" style="line;strokeWidth=1;fillColor=none;align=left;verticalAlign=middle;spacingTop=-1;spacingLeft=3;spacingRight=3;rotatable=0;labelPosition=right;points=[];portConstraint=eastwest;strokeColor=inherit;" vertex="1" parent="hEO-Ax7airPjoEFjA2KO-18">
          <mxGeometry y="66" width="120" height="8" as="geometry" />
        </mxCell>
        <mxCell id="hEO-Ax7airPjoEFjA2KO-21" value="+repaint():: void" style="text;strokeColor=none;fillColor=none;align=left;verticalAlign=top;spacingLeft=4;spacingRight=4;overflow=hidden;rotatable=0;points=[[0,0.5],[1,0.5]];portConstraint=eastwest;whiteSpace=wrap;html=1;" vertex="1" parent="hEO-Ax7airPjoEFjA2KO-18">
          <mxGeometry y="74" width="120" height="26" as="geometry" />
        </mxCell>
        <mxCell id="hEO-Ax7airPjoEFjA2KO-22" value="&lt;b&gt;MacOSXWidgetFactory&lt;/b&gt;" style="swimlane;fontStyle=0;childLayout=stackLayout;horizontal=1;startSize=26;fillColor=none;horizontalStack=0;resizeParent=1;resizeParentMax=0;resizeLast=0;collapsible=1;marginBottom=0;whiteSpace=wrap;html=1;" vertex="1" parent="1">
          <mxGeometry x="10" y="275" width="220" height="52" as="geometry" />
        </mxCell>
        <mxCell id="hEO-Ax7airPjoEFjA2KO-23" value="+createWindow(title: String) :: Window" style="text;strokeColor=none;fillColor=none;align=left;verticalAlign=top;spacingLeft=4;spacingRight=4;overflow=hidden;rotatable=0;points=[[0,0.5],[1,0.5]];portConstraint=eastwest;whiteSpace=wrap;html=1;" vertex="1" parent="hEO-Ax7airPjoEFjA2KO-22">
          <mxGeometry y="26" width="220" height="26" as="geometry" />
        </mxCell>
        <mxCell id="hEO-Ax7airPjoEFjA2KO-26" value="&lt;b&gt;MSWindowWidgetFactory&lt;/b&gt;" style="swimlane;fontStyle=0;childLayout=stackLayout;horizontal=1;startSize=30;fillColor=none;horizontalStack=0;resizeParent=1;resizeParentMax=0;resizeLast=0;collapsible=1;marginBottom=0;whiteSpace=wrap;html=1;" vertex="1" parent="1">
          <mxGeometry x="420" y="275" width="220" height="56" as="geometry" />
        </mxCell>
        <mxCell id="hEO-Ax7airPjoEFjA2KO-27" value="+createWindow(title: String) :: Window" style="text;strokeColor=none;fillColor=none;align=left;verticalAlign=top;spacingLeft=4;spacingRight=4;overflow=hidden;rotatable=0;points=[[0,0.5],[1,0.5]];portConstraint=eastwest;whiteSpace=wrap;html=1;" vertex="1" parent="hEO-Ax7airPjoEFjA2KO-26">
          <mxGeometry y="30" width="220" height="26" as="geometry" />
        </mxCell>
        <mxCell id="hEO-Ax7airPjoEFjA2KO-28" value="&lt;b&gt;UnixWidgetFactory&lt;/b&gt;" style="swimlane;fontStyle=0;childLayout=stackLayout;horizontal=1;startSize=30;fillColor=none;horizontalStack=0;resizeParent=1;resizeParentMax=0;resizeLast=0;collapsible=1;marginBottom=0;whiteSpace=wrap;html=1;" vertex="1" parent="1">
          <mxGeometry x="690" y="273" width="220" height="56" as="geometry" />
        </mxCell>
        <mxCell id="hEO-Ax7airPjoEFjA2KO-29" value="+createWindow(title: String) :: Window" style="text;strokeColor=none;fillColor=none;align=left;verticalAlign=top;spacingLeft=4;spacingRight=4;overflow=hidden;rotatable=0;points=[[0,0.5],[1,0.5]];portConstraint=eastwest;whiteSpace=wrap;html=1;" vertex="1" parent="hEO-Ax7airPjoEFjA2KO-28">
          <mxGeometry y="30" width="220" height="26" as="geometry" />
        </mxCell>
        <mxCell id="hEO-Ax7airPjoEFjA2KO-30" value="&lt;b&gt;MacOSXWindow&lt;/b&gt;" style="swimlane;fontStyle=0;childLayout=stackLayout;horizontal=1;startSize=26;fillColor=none;horizontalStack=0;resizeParent=1;resizeParentMax=0;resizeLast=0;collapsible=1;marginBottom=0;whiteSpace=wrap;html=1;" vertex="1" parent="1">
          <mxGeometry x="80" y="440" width="140" height="52" as="geometry" />
        </mxCell>
        <mxCell id="hEO-Ax7airPjoEFjA2KO-31" value="+repaint():: void" style="text;strokeColor=none;fillColor=none;align=left;verticalAlign=top;spacingLeft=4;spacingRight=4;overflow=hidden;rotatable=0;points=[[0,0.5],[1,0.5]];portConstraint=eastwest;whiteSpace=wrap;html=1;" vertex="1" parent="hEO-Ax7airPjoEFjA2KO-30">
          <mxGeometry y="26" width="140" height="26" as="geometry" />
        </mxCell>
        <mxCell id="hEO-Ax7airPjoEFjA2KO-34" value="&lt;b&gt;MSWindow&lt;/b&gt;" style="swimlane;fontStyle=0;childLayout=stackLayout;horizontal=1;startSize=26;fillColor=none;horizontalStack=0;resizeParent=1;resizeParentMax=0;resizeLast=0;collapsible=1;marginBottom=0;whiteSpace=wrap;html=1;" vertex="1" parent="1">
          <mxGeometry x="380" y="440" width="140" height="52" as="geometry" />
        </mxCell>
        <mxCell id="hEO-Ax7airPjoEFjA2KO-36" value="+repaint():: void" style="text;strokeColor=none;fillColor=none;align=left;verticalAlign=top;spacingLeft=4;spacingRight=4;overflow=hidden;rotatable=0;points=[[0,0.5],[1,0.5]];portConstraint=eastwest;whiteSpace=wrap;html=1;" vertex="1" parent="hEO-Ax7airPjoEFjA2KO-34">
          <mxGeometry y="26" width="140" height="26" as="geometry" />
        </mxCell>
        <mxCell id="hEO-Ax7airPjoEFjA2KO-38" value="&lt;b&gt;UnixWindow&lt;/b&gt;" style="swimlane;fontStyle=0;childLayout=stackLayout;horizontal=1;startSize=26;fillColor=none;horizontalStack=0;resizeParent=1;resizeParentMax=0;resizeLast=0;collapsible=1;marginBottom=0;whiteSpace=wrap;html=1;" vertex="1" parent="1">
          <mxGeometry x="687" y="440" width="140" height="52" as="geometry" />
        </mxCell>
        <mxCell id="hEO-Ax7airPjoEFjA2KO-39" value="+repaint():: void" style="text;strokeColor=none;fillColor=none;align=left;verticalAlign=top;spacingLeft=4;spacingRight=4;overflow=hidden;rotatable=0;points=[[0,0.5],[1,0.5]];portConstraint=eastwest;whiteSpace=wrap;html=1;" vertex="1" parent="hEO-Ax7airPjoEFjA2KO-38">
          <mxGeometry y="26" width="140" height="26" as="geometry" />
        </mxCell>
        <mxCell id="hEO-Ax7airPjoEFjA2KO-42" value="" style="html=1;verticalAlign=bottom;endArrow=open;dashed=1;endSize=8;curved=0;rounded=0;exitX=0.461;exitY=0.977;exitDx=0;exitDy=0;exitPerimeter=0;entryX=1;entryY=0;entryDx=0;entryDy=0;" edge="1" parent="1" source="hEO-Ax7airPjoEFjA2KO-27" target="hEO-Ax7airPjoEFjA2KO-34">
          <mxGeometry relative="1" as="geometry">
            <mxPoint x="450" y="270" as="sourcePoint" />
            <mxPoint x="370" y="270" as="targetPoint" />
            <Array as="points">
              <mxPoint x="520" y="390" />
            </Array>
          </mxGeometry>
        </mxCell>
        <mxCell id="hEO-Ax7airPjoEFjA2KO-43" value="" style="html=1;verticalAlign=bottom;endArrow=open;dashed=1;endSize=8;curved=0;rounded=0;exitX=0.401;exitY=1.023;exitDx=0;exitDy=0;exitPerimeter=0;" edge="1" parent="1" source="hEO-Ax7airPjoEFjA2KO-29">
          <mxGeometry relative="1" as="geometry">
            <mxPoint x="760" y="380" as="sourcePoint" />
            <mxPoint x="759" y="440" as="targetPoint" />
            <Array as="points">
              <mxPoint x="759" y="440" />
            </Array>
          </mxGeometry>
        </mxCell>
        <mxCell id="hEO-Ax7airPjoEFjA2KO-46" value="" style="html=1;verticalAlign=bottom;endArrow=open;dashed=1;endSize=8;curved=0;rounded=0;exitX=0.401;exitY=1.023;exitDx=0;exitDy=0;exitPerimeter=0;" edge="1" parent="1">
          <mxGeometry relative="1" as="geometry">
            <mxPoint x="149" y="330" as="sourcePoint" />
            <mxPoint x="130" y="440" as="targetPoint" />
            <Array as="points">
              <mxPoint x="139" y="390" />
              <mxPoint x="130" y="440" />
            </Array>
          </mxGeometry>
        </mxCell>
        <mxCell id="hEO-Ax7airPjoEFjA2KO-47" value="" style="endArrow=classic;html=1;rounded=0;entryX=0.102;entryY=0.992;entryDx=0;entryDy=0;entryPerimeter=0;" edge="1" parent="1" target="hEO-Ax7airPjoEFjA2KO-21">
          <mxGeometry width="50" height="50" relative="1" as="geometry">
            <mxPoint x="220" y="440" as="sourcePoint" />
            <mxPoint x="270" y="390" as="targetPoint" />
          </mxGeometry>
        </mxCell>
        <mxCell id="hEO-Ax7airPjoEFjA2KO-48" value="" style="endArrow=classic;html=1;rounded=0;entryX=0.815;entryY=1.085;entryDx=0;entryDy=0;entryPerimeter=0;" edge="1" parent="1" target="hEO-Ax7airPjoEFjA2KO-21">
          <mxGeometry width="50" height="50" relative="1" as="geometry">
            <mxPoint x="380" y="440" as="sourcePoint" />
            <mxPoint x="430" y="390" as="targetPoint" />
          </mxGeometry>
        </mxCell>
        <mxCell id="hEO-Ax7airPjoEFjA2KO-49" value="" style="endArrow=classic;html=1;rounded=0;entryX=1.015;entryY=0.962;entryDx=0;entryDy=0;entryPerimeter=0;" edge="1" parent="1" target="hEO-Ax7airPjoEFjA2KO-21">
          <mxGeometry width="50" height="50" relative="1" as="geometry">
            <mxPoint x="690" y="440" as="sourcePoint" />
            <mxPoint x="740" y="390" as="targetPoint" />
          </mxGeometry>
        </mxCell>
        <mxCell id="hEO-Ax7airPjoEFjA2KO-50" value="" style="endArrow=classic;html=1;rounded=0;exitX=0.341;exitY=1.169;exitDx=0;exitDy=0;exitPerimeter=0;" edge="1" parent="1" source="hEO-Ax7airPjoEFjA2KO-6">
          <mxGeometry width="50" height="50" relative="1" as="geometry">
            <mxPoint x="360" y="170" as="sourcePoint" />
            <mxPoint x="330" y="270" as="targetPoint" />
          </mxGeometry>
        </mxCell>
        <mxCell id="hEO-Ax7airPjoEFjA2KO-51" value="" style="endArrow=classic;html=1;rounded=0;exitX=0.703;exitY=1.077;exitDx=0;exitDy=0;exitPerimeter=0;entryX=0.223;entryY=-0.046;entryDx=0;entryDy=0;entryPerimeter=0;" edge="1" parent="1" source="hEO-Ax7airPjoEFjA2KO-6" target="hEO-Ax7airPjoEFjA2KO-10">
          <mxGeometry width="50" height="50" relative="1" as="geometry">
            <mxPoint x="490" y="160" as="sourcePoint" />
            <mxPoint x="540" y="110" as="targetPoint" />
          </mxGeometry>
        </mxCell>
        <mxCell id="hEO-Ax7airPjoEFjA2KO-52" value="" style="endArrow=classic;html=1;rounded=0;entryX=-0.006;entryY=0.385;entryDx=0;entryDy=0;entryPerimeter=0;exitX=0.75;exitY=0;exitDx=0;exitDy=0;" edge="1" parent="1" source="hEO-Ax7airPjoEFjA2KO-22">
          <mxGeometry width="50" height="50" relative="1" as="geometry">
            <mxPoint x="231.32" y="269.98" as="sourcePoint" />
            <mxPoint x="430.00000000000006" y="189.99999999999997" as="targetPoint" />
          </mxGeometry>
        </mxCell>
        <mxCell id="hEO-Ax7airPjoEFjA2KO-53" value="" style="endArrow=classic;html=1;rounded=0;entryX=0.525;entryY=1.062;entryDx=0;entryDy=0;entryPerimeter=0;exitX=0.563;exitY=-0.011;exitDx=0;exitDy=0;exitPerimeter=0;" edge="1" parent="1" source="hEO-Ax7airPjoEFjA2KO-26" target="hEO-Ax7airPjoEFjA2KO-11">
          <mxGeometry width="50" height="50" relative="1" as="geometry">
            <mxPoint x="530" y="280" as="sourcePoint" />
            <mxPoint x="580" y="230" as="targetPoint" />
          </mxGeometry>
        </mxCell>
        <mxCell id="hEO-Ax7airPjoEFjA2KO-54" value="" style="endArrow=classic;html=1;rounded=0;entryX=1.008;entryY=0.908;entryDx=0;entryDy=0;entryPerimeter=0;" edge="1" parent="1" target="hEO-Ax7airPjoEFjA2KO-11">
          <mxGeometry width="50" height="50" relative="1" as="geometry">
            <mxPoint x="730" y="270" as="sourcePoint" />
            <mxPoint x="780" y="220" as="targetPoint" />
          </mxGeometry>
        </mxCell>
      </root>
    </mxGraphModel>
  </diagram>
</mxfile>
